<?xml version="1.0" encoding="UTF-8" standalone="no"?>
<svg
   xmlns:dc="http://purl.org/dc/elements/1.1/"
   xmlns:cc="http://creativecommons.org/ns#"
   xmlns:rdf="http://www.w3.org/1999/02/22-rdf-syntax-ns#"
   xmlns:svg="http://www.w3.org/2000/svg"
   xmlns="http://www.w3.org/2000/svg"
   xmlns:sodipodi="http://sodipodi.sourceforge.net/DTD/sodipodi-0.dtd"
   xmlns:inkscape="http://www.inkscape.org/namespaces/inkscape"
   version="1.1"
   id="svg2"
   xml:space="preserve"
   width="573.52002"
   height="520.73334"
   viewBox="0 0 573.52002 520.73334"
   sodipodi:docname="2794113.eps"><metadata
     id="metadata8"><rdf:RDF><cc:Work
         rdf:about=""><dc:format>image/svg+xml</dc:format><dc:type
           rdf:resource="http://purl.org/dc/dcmitype/StillImage" /></cc:Work></rdf:RDF></metadata><defs
     id="defs6" /><sodipodi:namedview
     pagecolor="#ffffff"
     bordercolor="#666666"
     borderopacity="1"
     objecttolerance="10"
     gridtolerance="10"
     guidetolerance="10"
     inkscape:pageopacity="0"
     inkscape:pageshadow="2"
     inkscape:window-width="640"
     inkscape:window-height="480"
     id="namedview4" /><g
     id="g10"
     inkscape:groupmode="layer"
     inkscape:label="ink_ext_XXXXXX"
     transform="matrix(1.3333333,0,0,-1.3333333,0,520.73333)"><g
       id="g12"
       transform="scale(0.1)"><path
         d="M 2251.41,0 C 1726.77,0 1202.13,95.3984 801.844,286.18 128.215,607.25 21.3945,1096.17 481.391,1470.46 c 7.496,-15.14 14.488,-30.52 20.851,-46.1 11.094,-27.17 20.418,-53.67 28.262,-79 l -60.891,-269.52 c -3.043,-13.47 3.586,-29.64 14.801,-36.12 5.375,-3.1 12.484,-4.63 19.75,-4.63 7.106,0 14.359,1.47 20.277,4.38 0.633,0.3 1.278,0.65 1.938,1.03 l 529.371,305.63 95.38,-668.618 c 1.95,-13.672 12.62,-30 23.83,-36.473 5.38,-3.109 12.49,-4.641 19.75,-4.641 7.85,0 15.88,1.793 22.1,5.352 0.04,0.02 0.07,0.039 0.11,0.059 l 1658.54,957.551 c -3.75,-25.69 -5.71,-51.09 -5.71,-75.88 0,-57.25 10.46,-105.65 29.28,-143.99 -100.8,-98.37 -65.45,-220.43 106.05,-302.16 108.02,-51.49 249.59,-77.23 391.16,-77.23 141.57,0 283.14,25.74 391.16,77.23 216.03,102.95 216.03,269.89 0,372.87 -6.92,3.3 -13.96,6.48 -21.15,9.57 23.76,47.1 42.91,96.08 56.34,144.99 C 4499.2,1220.88 4458.7,647.32 3700.98,286.18 3300.7,95.3984 2776.06,0 2251.41,0 m -190.5,484.441 c -12.67,-4.671 -24.86,-9.769 -36.48,-15.32 -147.8,-70.441 -147.8,-184.66 0,-255.082 73.89,-35.23 170.74,-52.84 267.6,-52.84 96.85,0 193.7,17.61 267.6,52.84 147.79,70.422 147.79,184.641 0,255.082 -73.9,35.219 -170.75,52.828 -267.6,52.828 -66.32,0 -132.63,-8.258 -191.58,-24.769 v 72 0 c -4.03,50.031 -42.6,135.402 -99.75,196.199 -43.45,46.223 -106.71,74.242 -159.33,74.242 -16.59,0 -32.11,-2.789 -45.63,-8.66 -22,-9.563 -32.76,-27.473 -32.74,-48.121 0.03,-28.641 20.8,-62.551 61.08,-86.77 69.3,-41.691 172.55,-92.75 207.9,-171.601 l 28.93,-40.028"
         style="fill:#f3f2f1;fill-opacity:1;fill-rule:nonzero;stroke:none"
         id="path14" /><path
         d="m 3787.4,1077.33 c -216.03,-102.971 -566.28,-102.971 -782.32,0 -216.03,102.95 -216.03,269.89 0,372.87 216.04,102.95 566.29,102.95 782.32,0 216.03,-102.98 216.03,-269.92 0,-372.87"
         style="fill:#dadbd8;fill-opacity:1;fill-rule:nonzero;stroke:none"
         id="path16" /><path
         d="m 2559.63,214.039 c -147.8,-70.449 -387.41,-70.449 -535.2,0 -147.8,70.422 -147.8,184.641 0,255.082 147.79,70.43 387.4,70.43 535.2,0 147.79,-70.441 147.79,-184.66 0,-255.082"
         style="fill:#dadbd8;fill-opacity:1;fill-rule:nonzero;stroke:none"
         id="path18" /><path
         d="m 571.844,1113.69 81.242,46.91 c 0,0 42.969,191.31 -21.004,434.26 -63.969,242.95 -248.18,424.71 -344.586,386.57 -96.406,-38.15 -93.59,-109.97 -40.621,-182.86 43.988,-60.54 186.691,-206.03 255.367,-374.21 68.672,-168.18 69.602,-310.67 69.602,-310.67"
         style="fill:#26b6a6;fill-opacity:1;fill-rule:nonzero;stroke:none"
         id="path20" /><path
         d="m 530.504,1345.36 c -7.844,25.33 -17.168,51.83 -28.262,79 -68.676,168.18 -211.379,313.67 -255.367,374.21 -23.07,31.75 -36.629,63.29 -36.613,91.94 0.011,37.12 22.816,69.38 77.234,90.92 8.645,3.42 17.984,5.07 27.891,5.07 87.773,0 219.207,-129.85 289.945,-309.91 l -74.828,-331.23"
         style="fill:#1db3a0;fill-opacity:1;fill-rule:nonzero;stroke:none"
         id="path22" /><path
         d="m 615.133,1133.68 -0.695,0.05 c -2.743,0.38 -4.645,2.9 -4.266,5.64 55.586,399.99 -192.395,723.38 -305.176,790.85 -2.375,1.42 -3.144,4.49 -1.719,6.86 1.426,2.38 4.5,3.14 6.856,1.73 114.453,-68.48 366.18,-396.16 309.941,-800.81 -0.344,-2.51 -2.488,-4.32 -4.941,-4.32"
         style="fill:#ffffff;fill-opacity:1;fill-rule:nonzero;stroke:none"
         id="path24" /><path
         d="m 571.844,1113.69 -121.86,-70.35 c 0,0 -29.414,16.98 -81.238,23.45 -51.824,6.46 -86.363,56.46 -81.242,93.8 3.453,25.17 11.484,53.89 7.641,79.32 -3.45,22.82 -25.532,43.34 -46.118,51.3 -17.105,6.62 -35.882,6.93 -54.207,7.78 -29.3,1.35 -59.699,4.66 -84.699,20 -24.9999,15.35 -42.8944,45.92 -34.8749,74.13 4.2539,14.97 14.9023,27.17 25.4919,38.58 10.59,11.41 21.7,22.99 27.258,37.53 10.809,28.27 -8.254,46.19 -30.9647,59.31 -79.7344,46.03 -115.9922,82.33 -87.25396,117.12 28.73826,34.79 107.98466,49.98 189.07066,7.43 81.09,-42.54 148.347,3.07 201.886,-5.89 83.743,-14.02 88.727,-73.25 78.317,-124.68 -10.41,-51.42 93.082,-73.2 119.121,-134.7 18.933,-44.72 34.695,-191.99 -26.328,-274.13"
         style="fill:#26b6a6;fill-opacity:1;fill-rule:nonzero;stroke:none"
         id="path26" /><path
         d="m 531.215,1085.25 c -2.684,0 -4.902,2.13 -5,4.83 -9.695,285.53 -375.938,534.5 -462.2345,548.73 -2.7266,0.45 -4.5703,3.02 -4.1211,5.74 0.4492,2.74 3.0156,4.62 5.7422,4.12 90.8984,-14.98 460.5464,-262.08 470.6134,-558.26 0.09,-2.75 -2.07,-5.07 -4.832,-5.16 h -0.168"
         style="fill:#ffffff;fill-opacity:1;fill-rule:nonzero;stroke:none"
         id="path28" /><path
         d="m 2100.45,569.18 c -4.03,50.031 -42.6,135.402 -99.75,196.199 -57.14,60.793 -148.56,90.082 -204.96,65.582 -52.52,-22.82 -40.97,-93.211 28.34,-134.891 69.3,-41.691 172.55,-92.75 207.9,-171.601 l 68.47,-94.731 V 569.18"
         style="fill:#26b6a6;fill-opacity:1;fill-rule:nonzero;stroke:none"
         id="path30" /><path
         d="m 2100.45,429.738 -68.47,94.731 c -35.35,78.851 -138.6,129.91 -207.9,171.601 -40.28,24.219 -61.05,58.129 -61.08,86.77 -0.02,20.648 10.74,38.558 32.74,48.121 13.52,5.871 29.04,8.66 45.63,8.66 52.62,0 115.88,-28.019 159.33,-74.242 57.15,-60.797 95.72,-146.168 99.75,-196.199 V 429.738"
         style="fill:#1db3a0;fill-opacity:1;fill-rule:nonzero;stroke:none"
         id="path32" /><path
         d="m 2100.46,477.91 0.91,0.051 c 3.75,0.519 6.39,3.969 5.89,7.719 -24.97,185.25 -213.29,314.16 -288.14,328.422 -3.74,0.75 -7.33,-1.75 -8.02,-5.454 -0.72,-3.738 1.73,-7.328 5.44,-8.019 69.82,-13.301 253.39,-140.758 277.11,-316.77 0.46,-3.449 3.41,-5.949 6.81,-5.949"
         style="fill:#ffffff;fill-opacity:1;fill-rule:nonzero;stroke:none"
         id="path34" /><path
         d="m 2092.97,362.59 c -10.3,27.48 -48.39,71.14 -107.04,105.012 -64.88,37.468 -144.25,50.718 -164.83,82.289 -24.74,37.929 5.68,78.089 69.45,75.328 63.78,-2.75 181.72,-79.969 209.9,-208.258 l -7.48,-54.371"
         style="fill:#26b6a6;fill-opacity:1;fill-rule:nonzero;stroke:none"
         id="path36" /><path
         d="m 2097.51,389.18 1.34,0.121 c 3.71,0.75 6.13,4.359 5.39,8.07 -18.9,94.981 -156.62,193.379 -245.61,197.5 -3.48,-0.031 -7,-2.75 -7.18,-6.539 -0.16,-3.781 2.75,-7.004 6.54,-7.184 82.61,-3.82 215.29,-98.488 232.78,-186.449 0.67,-3.269 3.52,-5.519 6.74,-5.519"
         style="fill:#ffffff;fill-opacity:1;fill-rule:nonzero;stroke:none"
         id="path38" /><path
         d="m 484.414,1039.72 c -11.215,6.48 -17.844,22.65 -14.801,36.12 l 354.559,1569.43 c 3.043,13.46 15.199,29.98 27.156,36.88 L 2960.9,3900.12 c 11.96,6.9 30.75,7.25 41.97,0.77 11.22,-6.47 17.84,-22.64 14.8,-36.11 L 2663.11,2295.35 c -3.04,-13.47 -15.2,-29.98 -27.16,-36.89 L 526.379,1040.5 c -11.961,-6.9 -30.746,-7.25 -41.965,-0.78"
         style="fill:#ededeb;fill-opacity:1;fill-rule:nonzero;stroke:none"
         id="path40" /><path
         d="M 864.793,2621.82 510.234,1052.38 c -3.043,-13.46 4.184,-18.78 16.145,-11.88 L 2635.95,2258.46 c 11.96,6.91 24.12,23.42 27.16,36.89 l 354.56,1569.43 c 3.04,13.47 -4.18,18.79 -16.14,11.89 L 891.953,2658.7 c -11.957,-6.9 -24.117,-23.42 -27.16,-36.88"
         style="fill:#e1e2df;fill-opacity:1;fill-rule:nonzero;stroke:none"
         id="path42" /><path
         d="m 3043.49,3877.44 c -11.22,6.47 -30,6.13 -41.96,-0.77 L 891.953,2658.7 c -11.957,-6.9 -20.07,-23.58 -18.121,-37.25 L 1151.13,677.512 c 1.95,-13.672 12.62,-30 23.83,-36.473 11.22,-6.48 30,-6.129 41.96,0.77 L 3326.5,1859.77 c 11.96,6.91 20.08,23.58 18.13,37.25 l -277.29,1943.94 c -1.95,13.67 -12.63,30 -23.85,36.48"
         style="fill:#ededeb;fill-opacity:1;fill-rule:nonzero;stroke:none"
         id="path44" /><path
         d="M 914.453,2598 1191.74,654.059 c 1.95,-13.668 13.22,-19.149 25.18,-12.25 L 3326.5,1859.77 c 11.96,6.91 20.08,23.58 18.13,37.25 l -277.29,1943.94 c -1.95,13.67 -13.22,19.16 -25.18,12.25 L 932.574,2635.25 c -11.961,-6.9 -20.07,-23.58 -18.121,-37.25"
         style="fill:#fafaf9;fill-opacity:1;fill-rule:nonzero;stroke:none"
         id="path46" /><path
         d="m 512.109,1060.69 539.871,311.91 16.14,-113.14 -247.636,-142.97 c 0,0 -65.953,-23.45 -92.214,-29.94 -26.262,-6.49 -216.161,-25.86 -216.161,-25.86"
         style="fill:#dadbd8;fill-opacity:1;fill-rule:nonzero;stroke:none"
         id="path48" /><path
         d="M 1068.12,1259.46 1149.14,691.449 820.484,1116.49 Z"
         style="fill:#e1e2df;fill-opacity:1;fill-rule:nonzero;stroke:none"
         id="path50" /><path
         d="m 1139.41,672.57 -294.472,382.52 c -8.422,10.94 -26.329,18.21 -39.993,16.24 l -275.476,-39.76 c -13.664,-1.97 -33.836,1.68 -45.055,8.15 -11.219,6.48 -9.32,13.84 4.238,16.45 l 316.485,60.91 c 13.558,2.61 31.222,-4.26 39.453,-15.35 l 335.78,-452.351 c 8.23,-11.078 5.81,-14.82 -5.41,-8.34 -11.21,6.473 -27.13,20.59 -35.55,31.531"
         style="fill:#dadbd8;fill-opacity:1;fill-rule:nonzero;stroke:none"
         id="path52" /><path
         d="m 3018.32,3872.51 c -0.2,11.4 -6.3,23.2 -15.4,28.4 -11.3,6.39 -30,6.1 -42,-0.8 l -2109.6,-1218 c -5.8,-3.3 -11.601,-9 -16.5,-15.4 -5.101,-6.8 -9.097,-14.6 -10.703,-21.5 l -50,-221.7 40.606,-23.31 2152.887,1242.94 50.07,221.63 c 0.65,2.88 0.61,5.37 0.64,7.74"
         style="fill:#26b6a6;fill-opacity:1;fill-rule:nonzero;stroke:none"
         id="path54" /><path
         d="m 814.723,2400.2 50.086,221.62 c 0.136,0.63 0.293,1.26 0.468,1.9 1.422,5.04 4.012,10.4 7.309,15.47 0.894,1.37 1.836,2.72 2.824,4.03 v 0 c 0.145,0.2 0.293,0.4 0.442,0.6 4.195,5.48 9.121,10.33 14.101,13.64 -5.23,-3.68 -9.601,-9.2 -12.547,-15.44 v 0 c -2.468,-5.26 -3.859,-10.96 -3.867,-16.45 0,-1.4 0.09,-2.79 0.27,-4.15 l 24.703,-172.85 -83.789,-48.37"
         style="fill:#14b099;fill-opacity:1;fill-rule:nonzero;stroke:none"
         id="path56" /><path
         d="m 793.043,2507.48 31.062,137.74 c 1.606,6.9 5.602,14.7 10.704,21.5 v 0 0 h 0.004 c -3.711,-4.95 -6.821,-10.37 -8.84,-15.62 -0.785,-2.01 -1.41,-3.98 -1.856,-5.89 l -22.437,-99.5 -8.637,-38.23"
         style="fill:#e0e0de;fill-opacity:1;fill-rule:nonzero;stroke:none"
         id="path58" /><path
         d="m 774.121,2423.51 -0.016,0.01 18.938,83.96 8.637,38.23 -27.559,-122.2 m 51.852,227.59 c 2.019,5.25 5.129,10.67 8.84,15.62 l 0.011,-0.01 c -0.004,0 -0.004,0 -0.004,0 -3.691,-4.92 -6.804,-10.36 -8.847,-15.61"
         style="fill:#d1d3d0;fill-opacity:1;fill-rule:nonzero;stroke:none"
         id="path60" /><path
         d="m 814.723,2400.2 v 0 l -40.602,23.31 27.559,122.2 22.437,99.5 c 0.446,1.91 1.071,3.88 1.856,5.89 2.043,5.25 5.156,10.69 8.847,15.61 0,0 0,0 0.004,0 l 40.578,-23.49 c -0.984,-1.31 -1.925,-2.66 -2.816,-4.03 -3.309,-5.07 -5.914,-10.43 -7.309,-15.47 -0.179,-0.64 -0.343,-1.27 -0.484,-1.9 l -50.07,-221.62"
         style="fill:#1db3a0;fill-opacity:1;fill-rule:nonzero;stroke:none"
         id="path62" /><path
         d="m 814.723,2400.2 50.07,221.62 c 0.141,0.63 0.305,1.26 0.484,1.9 -0.175,-0.64 -0.332,-1.27 -0.468,-1.9 L 814.723,2400.2 m 57.863,238.99 c 0.891,1.37 1.832,2.72 2.816,4.03 h 0.008 c -0.988,-1.31 -1.93,-2.66 -2.824,-4.03"
         style="fill:#09ac93;fill-opacity:1;fill-rule:nonzero;stroke:none"
         id="path64" /><path
         d="m 834.813,2666.72 h -0.004 c 0.132,0.17 0.261,0.34 0.394,0.51 -0.129,-0.17 -0.262,-0.34 -0.39,-0.51 m 2048.917,1188.84 77.18,44.56 c 0.15,0.09 0.3,0.17 0.46,0.26 -0.16,-0.09 -0.31,-0.17 -0.47,-0.26 l -77.17,-44.56 m 126.58,38.96 c -2.13,2.61 -4.62,4.8 -7.39,6.39 -1.56,0.88 -3.26,1.63 -5.06,2.26 -0.88,0.31 -1.79,0.6 -2.72,0.85 2.82,-0.75 5.45,-1.79 7.77,-3.1 2.77,-1.58 5.27,-3.78 7.4,-6.4"
         style="fill:#ffffff;fill-opacity:1;fill-rule:nonzero;stroke:none"
         id="path66" /><path
         d="m 834.824,2666.71 -0.011,0.01 c 0.128,0.17 0.261,0.34 0.39,0.51 4.817,6.19 10.461,11.68 16.106,14.89 l 2032.421,1173.44 77.17,44.56 c 0.16,0.09 0.31,0.17 0.47,0.26 6.18,3.42 14.04,5.14 21.74,5.14 4.16,0 8.26,-0.5 12.03,-1.5 0.93,-0.25 1.84,-0.54 2.72,-0.85 -4.46,1.56 -9.56,2.33 -14.74,2.33 -7.89,0 -15.95,-1.8 -22.2,-5.39 l -2109.6,-1218 c -5.797,-3.3 -11.597,-9 -16.496,-15.4"
         style="fill:#f4f4f2;fill-opacity:1;fill-rule:nonzero;stroke:none"
         id="path68" /><path
         d="m 875.402,2643.22 -40.578,23.49 c 4.899,6.4 10.699,12.1 16.496,15.4 l 2109.6,1218 c 6.25,3.59 14.31,5.39 22.2,5.39 5.18,0 10.28,-0.77 14.74,-2.33 1.8,-0.63 3.5,-1.38 5.06,-2.26 2.77,-1.59 5.26,-3.78 7.39,-6.39 2.99,-3.66 5.28,-8.14 6.62,-12.89 -4.8,-0.64 -9.44,-1.95 -13.47,-3.93 -0.63,-0.31 -1.27,-0.65 -1.93,-1.03 L 2112.72,3363.51 891.906,2658.72 c -5.621,-3.2 -11.336,-8.65 -16.054,-14.9 -0.149,-0.2 -0.297,-0.4 -0.45,-0.6"
         style="fill:#5cc8bc;fill-opacity:1;fill-rule:nonzero;stroke:none"
         id="path70" /><path
         d="m 875.41,2643.22 v 0 0 h -0.008 c 0.153,0.2 0.301,0.4 0.45,0.6 -0.149,-0.2 -0.297,-0.4 -0.442,-0.6 m 1237.31,720.29 888.81,513.16 c 0.66,0.38 1.3,0.72 1.93,1.03 -0.66,-0.33 -1.31,-0.67 -1.93,-1.03 l -888.81,-513.16"
         style="fill:#57c6b3;fill-opacity:1;fill-rule:nonzero;stroke:none"
         id="path72" /><path
         d="m 3069.92,3822.34 0.07,0.04 -2.65,18.58 c -0.13,0.89 -0.38,1.8 -0.58,2.7 l -0.15,0.76 -0.03,0.06 c -3.07,12.85 -12.81,27.03 -23.09,32.96 -11.22,6.48 -30.01,6.13 -41.96,-0.77 L 891.953,2658.7 c -6.137,-3.54 -11.226,-9.67 -14.5,-16.63 l -0.047,-0.05 c -3.097,-6.6 -4.5,-13.9 -3.597,-20.6 l 39.8,-278.5 40.598,-23.5 2152.903,1242.9 -37.19,260.02"
         style="fill:#26b6a6;fill-opacity:1;fill-rule:nonzero;stroke:none"
         id="path74" /><path
         d="m 954.207,2319.42 -40.598,23.5 -15.097,105.65 -24.703,172.85 c -0.18,1.36 -0.27,2.75 -0.27,4.15 0.008,5.49 1.399,11.19 3.867,16.45 v 0 0 l 40.703,-23.4 c -3.203,-6.6 -4.601,-14 -3.703,-20.6 l 39.801,-278.6"
         style="fill:#1db3a0;fill-opacity:1;fill-rule:nonzero;stroke:none"
         id="path76" /><path
         d="m 3066.61,3844.42 c -0.02,0.05 -0.03,0.1 -0.05,0.15 -2.09,8.65 -7.19,17.89 -13.43,24.81 6.3,-6.95 11.45,-16.23 13.48,-24.96"
         style="fill:#f4f4f2;fill-opacity:1;fill-rule:nonzero;stroke:none"
         id="path78" /><path
         d="m 889.953,2657.46 c 0.641,0.45 1.289,0.87 1.953,1.26 L 2112.72,3363.51 891.953,2658.7 c -0.668,-0.38 -1.332,-0.8 -2,-1.24"
         style="fill:#5cc8bc;fill-opacity:1;fill-rule:nonzero;stroke:none"
         id="path80" /><path
         d="m 877.406,2642.02 c 2.946,6.24 7.317,11.76 12.547,15.44 0.668,0.44 1.332,0.86 2,1.24 L 2112.72,3363.51 891.953,2658.7 c -6.137,-3.54 -11.226,-9.67 -14.5,-16.63 l -0.047,-0.05"
         style="fill:#57c6b3;fill-opacity:1;fill-rule:nonzero;stroke:none"
         id="path82" /><path
         d="m 918.109,2618.62 v 0 0 l -40.703,23.4 v 0 l 0.047,0.05 c 3.274,6.96 8.363,13.09 14.5,16.63 l 1220.767,704.81 888.79,513.11 c 6.26,3.61 14.39,5.43 22.32,5.43 7.25,0 14.33,-1.52 19.68,-4.63 3.33,-1.94 6.6,-4.72 9.62,-8.04 6.24,-6.92 11.34,-16.16 13.43,-24.81 -2.26,7.44 -7.69,11.64 -14.29,11.64 -3.16,0 -6.58,-0.96 -10.06,-2.99 l -2109.601,-1218 c -6.101,-3.5 -11.3,-9.6 -14.5,-16.6"
         style="fill:#5cc8bc;fill-opacity:1;fill-rule:nonzero;stroke:none"
         id="path84" /><path
         d="m 1514.33,976.141 -25.27,177.079 c -1.56,10.93 -10.58,15.32 -20.14,9.8 L 1285,1056.83 c -9.56,-5.52 -16.05,-18.86 -14.49,-29.8 l 25.26,-177.069 c 1.56,-10.941 10.58,-15.332 20.15,-9.801 l 183.91,106.18 c 9.57,5.519 16.06,18.859 14.5,29.801"
         style="fill:#26b6a6;fill-opacity:1;fill-rule:nonzero;stroke:none"
         id="path86" /><path
         d="m 1798.72,1140.13 -25.26,177.08 c -1.56,10.93 -10.58,15.32 -20.14,9.8 L 1569.4,1220.82 c -9.56,-5.52 -16.05,-18.86 -14.49,-29.8 l 25.26,-177.08 c 1.56,-10.93 10.58,-15.319 20.14,-9.8 l 183.92,106.19 c 9.56,5.52 16.05,18.86 14.49,29.8"
         style="fill:#e7e8e5;fill-opacity:1;fill-rule:nonzero;stroke:none"
         id="path88" /><path
         d="m 2083.12,1304.12 -25.26,177.07 c -1.56,10.94 -10.58,15.33 -20.14,9.8 L 1853.8,1384.81 c -9.56,-5.52 -16.05,-18.86 -14.49,-29.8 l 25.26,-177.08 c 1.56,-10.93 10.58,-15.32 20.14,-9.8 l 183.92,106.19 c 9.56,5.52 16.05,18.86 14.49,29.8"
         style="fill:#e7e8e5;fill-opacity:1;fill-rule:nonzero;stroke:none"
         id="path90" /><path
         d="m 2367.52,1468.11 -25.26,177.07 c -1.56,10.94 -10.58,15.33 -20.15,9.8 L 2138.2,1548.8 c -9.57,-5.52 -16.06,-18.86 -14.5,-29.8 l 25.27,-177.08 c 1.56,-10.93 10.58,-15.32 20.14,-9.8 l 183.92,106.19 c 9.56,5.52 16.05,18.86 14.49,29.8"
         style="fill:#e7e8e5;fill-opacity:1;fill-rule:nonzero;stroke:none"
         id="path92" /><path
         d="m 2651.92,1632.09 -25.26,177.08 c -1.56,10.94 -10.58,15.33 -20.15,9.8 L 2422.6,1712.79 c -9.57,-5.52 -16.06,-18.86 -14.5,-29.8 l 25.27,-177.08 c 1.56,-10.93 10.57,-15.32 20.14,-9.8 l 183.91,106.18 c 9.57,5.53 16.06,18.87 14.5,29.8"
         style="fill:#e7e8e5;fill-opacity:1;fill-rule:nonzero;stroke:none"
         id="path94" /><path
         d="m 2936.32,1796.08 -25.26,177.08 c -1.56,10.94 -10.58,15.32 -20.15,9.8 L 2707,1876.78 c -9.57,-5.53 -16.06,-18.87 -14.5,-29.8 l 25.26,-177.08 c 1.56,-10.94 10.58,-15.32 20.15,-9.8 l 183.91,106.18 c 9.57,5.53 16.06,18.87 14.5,29.8"
         style="fill:#e7e8e5;fill-opacity:1;fill-rule:nonzero;stroke:none"
         id="path96" /><path
         d="m 3220.72,1960.07 -25.26,177.08 c -1.56,10.94 -10.58,15.32 -20.15,9.8 L 2991.4,2040.77 c -9.57,-5.53 -16.06,-18.87 -14.5,-29.8 l 25.26,-177.08 c 1.56,-10.94 10.58,-15.32 20.15,-9.8 l 183.91,106.18 c 9.57,5.53 16.06,18.87 14.5,29.8"
         style="fill:#e7e8e5;fill-opacity:1;fill-rule:nonzero;stroke:none"
         id="path98" /><path
         d="m 1464.89,1322.67 -25.26,177.07 c -1.56,10.94 -10.58,15.33 -20.15,9.8 l -183.91,-106.18 c -9.57,-5.52 -16.06,-18.86 -14.5,-29.8 l 25.27,-177.08 c 1.56,-10.93 10.58,-15.32 20.14,-9.8 l 183.92,106.19 c 9.56,5.52 16.05,18.86 14.49,29.8"
         style="fill:#26b6a6;fill-opacity:1;fill-rule:nonzero;stroke:none"
         id="path100" /><path
         d="m 1749.29,1486.66 -25.26,177.07 c -1.56,10.94 -10.58,15.33 -20.15,9.8 l -183.91,-106.18 c -9.57,-5.52 -16.06,-18.86 -14.5,-29.8 l 25.27,-177.08 c 1.56,-10.93 10.57,-15.32 20.14,-9.8 l 183.91,106.19 c 9.57,5.52 16.06,18.86 14.5,29.8"
         style="fill:#e7e8e5;fill-opacity:1;fill-rule:nonzero;stroke:none"
         id="path102" /><path
         d="m 2033.69,1650.64 -25.26,177.08 c -1.56,10.94 -10.58,15.33 -20.15,9.8 l -183.91,-106.18 c -9.57,-5.52 -16.06,-18.86 -14.5,-29.8 l 25.26,-177.08 c 1.56,-10.93 10.58,-15.32 20.15,-9.8 l 183.91,106.19 c 9.57,5.52 16.06,18.86 14.5,29.79"
         style="fill:#e7e8e5;fill-opacity:1;fill-rule:nonzero;stroke:none"
         id="path104" /><path
         d="m 2318.09,1814.63 -25.26,177.08 c -1.56,10.94 -10.58,15.33 -20.15,9.8 l -183.91,-106.18 c -9.57,-5.52 -16.06,-18.87 -14.5,-29.8 l 25.26,-177.08 c 1.56,-10.93 10.58,-15.32 20.15,-9.8 l 183.91,106.18 c 9.57,5.53 16.06,18.87 14.5,29.8"
         style="fill:#e7e8e5;fill-opacity:1;fill-rule:nonzero;stroke:none"
         id="path106" /><path
         d="m 2602.49,1978.62 -25.27,177.08 c -1.56,10.94 -10.57,15.32 -20.14,9.8 l -183.91,-106.18 c -9.57,-5.53 -16.06,-18.87 -14.5,-29.8 l 25.26,-177.08 c 1.56,-10.93 10.58,-15.32 20.15,-9.8 l 183.91,106.18 c 9.57,5.53 16.06,18.87 14.5,29.8"
         style="fill:#e7e8e5;fill-opacity:1;fill-rule:nonzero;stroke:none"
         id="path108" /><path
         d="m 2886.89,2142.61 -25.27,177.08 c -1.56,10.93 -10.58,15.32 -20.14,9.8 l -183.92,-106.18 c -9.56,-5.53 -16.05,-18.87 -14.49,-29.8 l 25.26,-177.08 c 1.56,-10.94 10.58,-15.32 20.15,-9.8 l 183.91,106.18 c 9.57,5.52 16.06,18.87 14.5,29.8"
         style="fill:#e7e8e5;fill-opacity:1;fill-rule:nonzero;stroke:none"
         id="path110" /><path
         d="m 3171.28,2306.6 -25.26,177.08 c -1.56,10.93 -10.58,15.32 -20.14,9.8 l -183.92,-106.19 c -9.56,-5.52 -16.05,-18.86 -14.49,-29.79 l 25.26,-177.08 c 1.56,-10.94 10.58,-15.33 20.14,-9.8 l 183.92,106.18 c 9.56,5.52 16.05,18.87 14.49,29.8"
         style="fill:#e7e8e5;fill-opacity:1;fill-rule:nonzero;stroke:none"
         id="path112" /><path
         d="m 1415.46,1669.19 -25.26,177.08 c -1.56,10.94 -10.58,15.33 -20.15,9.8 l -183.91,-106.18 c -9.57,-5.52 -16.06,-18.87 -14.5,-29.8 l 25.26,-177.08 c 1.56,-10.93 10.58,-15.32 20.15,-9.8 l 183.91,106.19 c 9.57,5.52 16.06,18.86 14.5,29.79"
         style="fill:#26b6a6;fill-opacity:1;fill-rule:nonzero;stroke:none"
         id="path114" /><path
         d="m 1699.86,1833.18 -25.27,177.08 c -1.56,10.94 -10.58,15.32 -20.14,9.8 l -183.92,-106.18 c -9.56,-5.52 -16.05,-18.87 -14.49,-29.8 L 1481.3,1707 c 1.56,-10.93 10.58,-15.32 20.15,-9.8 l 183.91,106.18 c 9.57,5.53 16.06,18.87 14.5,29.8"
         style="fill:#e7e8e5;fill-opacity:1;fill-rule:nonzero;stroke:none"
         id="path116" /><path
         d="m 1984.25,1997.17 -25.26,177.08 c -1.56,10.94 -10.58,15.32 -20.14,9.8 l -183.92,-106.18 c -9.56,-5.53 -16.05,-18.87 -14.49,-29.8 l 25.26,-177.08 c 1.56,-10.94 10.58,-15.32 20.14,-9.8 l 183.92,106.18 c 9.56,5.53 16.05,18.87 14.49,29.8"
         style="fill:#e7e8e5;fill-opacity:1;fill-rule:nonzero;stroke:none"
         id="path118" /><path
         d="m 2268.65,2161.16 -25.26,177.08 c -1.56,10.93 -10.58,15.32 -20.14,9.8 l -183.92,-106.18 c -9.56,-5.53 -16.05,-18.87 -14.49,-29.8 l 25.26,-177.08 c 1.56,-10.94 10.58,-15.32 20.14,-9.8 l 183.92,106.18 c 9.56,5.52 16.05,18.87 14.49,29.8"
         style="fill:#e7e8e5;fill-opacity:1;fill-rule:nonzero;stroke:none"
         id="path120" /><path
         d="m 2553.05,2325.15 -25.26,177.08 c -1.56,10.93 -10.58,15.32 -20.15,9.8 l -183.91,-106.19 c -9.57,-5.52 -16.06,-18.86 -14.5,-29.79 l 25.27,-177.08 c 1.56,-10.94 10.58,-15.33 20.14,-9.8 l 183.92,106.18 c 9.56,5.52 16.05,18.87 14.49,29.8"
         style="fill:#e7e8e5;fill-opacity:1;fill-rule:nonzero;stroke:none"
         id="path122" /><path
         d="m 2837.45,2489.14 -25.26,177.08 c -1.56,10.93 -10.58,15.32 -20.15,9.8 l -183.91,-106.19 c -9.57,-5.52 -16.06,-18.86 -14.5,-29.79 l 25.27,-177.08 c 1.56,-10.94 10.57,-15.33 20.14,-9.8 l 183.92,106.18 c 9.56,5.52 16.05,18.86 14.49,29.8"
         style="fill:#e7e8e5;fill-opacity:1;fill-rule:nonzero;stroke:none"
         id="path124" /><path
         d="m 3121.85,2653.13 -25.26,177.08 c -1.56,10.93 -10.58,15.32 -20.15,9.8 l -183.91,-106.19 c -9.57,-5.52 -16.06,-18.86 -14.5,-29.8 l 25.26,-177.07 c 1.56,-10.94 10.58,-15.33 20.15,-9.8 l 183.91,106.18 c 9.57,5.52 16.06,18.86 14.5,29.8"
         style="fill:#e7e8e5;fill-opacity:1;fill-rule:nonzero;stroke:none"
         id="path126" /><path
         d="m 1366.02,2015.72 -25.26,177.08 c -1.56,10.94 -10.58,15.32 -20.14,9.8 L 1136.7,2096.42 c -9.56,-5.53 -16.05,-18.87 -14.49,-29.8 l 25.26,-177.08 c 1.56,-10.94 10.58,-15.32 20.14,-9.8 l 183.92,106.18 c 9.56,5.53 16.05,18.87 14.49,29.8"
         style="fill:#26b6a6;fill-opacity:1;fill-rule:nonzero;stroke:none"
         id="path128" /><path
         d="m 1650.42,2179.71 -25.26,177.08 c -1.56,10.94 -10.58,15.32 -20.15,9.8 L 1421.1,2260.41 c -9.57,-5.53 -16.06,-18.87 -14.5,-29.8 l 25.27,-177.08 c 1.56,-10.94 10.58,-15.32 20.14,-9.8 l 183.92,106.18 c 9.56,5.53 16.05,18.87 14.49,29.8"
         style="fill:#e7e8e5;fill-opacity:1;fill-rule:nonzero;stroke:none"
         id="path130" /><path
         d="m 1934.82,2343.7 -25.26,177.08 c -1.56,10.93 -10.58,15.32 -20.15,9.8 L 1705.5,2424.4 c -9.57,-5.53 -16.06,-18.87 -14.5,-29.8 l 25.27,-177.08 c 1.56,-10.94 10.57,-15.32 20.14,-9.8 l 183.91,106.18 c 9.57,5.52 16.06,18.87 14.5,29.8"
         style="fill:#e7e8e5;fill-opacity:1;fill-rule:nonzero;stroke:none"
         id="path132" /><path
         d="m 2219.22,2507.69 -25.26,177.08 c -1.56,10.93 -10.58,15.32 -20.15,9.8 L 1989.9,2588.38 c -9.57,-5.52 -16.06,-18.86 -14.5,-29.8 l 25.26,-177.07 c 1.56,-10.94 10.58,-15.33 20.15,-9.8 l 183.91,106.18 c 9.57,5.52 16.06,18.86 14.5,29.8"
         style="fill:#e7e8e5;fill-opacity:1;fill-rule:nonzero;stroke:none"
         id="path134" /><path
         d="m 2503.62,2671.68 -25.26,177.08 c -1.56,10.93 -10.58,15.32 -20.15,9.8 L 2274.3,2752.37 c -9.57,-5.52 -16.06,-18.86 -14.5,-29.8 l 25.26,-177.07 c 1.56,-10.94 10.58,-15.33 20.15,-9.8 l 183.91,106.18 c 9.57,5.52 16.06,18.86 14.5,29.8"
         style="fill:#e7e8e5;fill-opacity:1;fill-rule:nonzero;stroke:none"
         id="path136" /><path
         d="m 2788.02,2835.67 -25.27,177.08 c -1.56,10.93 -10.57,15.32 -20.14,9.8 L 2558.7,2916.36 c -9.57,-5.52 -16.06,-18.86 -14.5,-29.8 l 25.26,-177.08 c 1.56,-10.93 10.58,-15.32 20.15,-9.8 l 183.91,106.19 c 9.57,5.52 16.06,18.86 14.5,29.8"
         style="fill:#e7e8e5;fill-opacity:1;fill-rule:nonzero;stroke:none"
         id="path138" /><path
         d="m 3072.42,2999.66 -25.27,177.07 c -1.56,10.94 -10.58,15.33 -20.14,9.81 l -183.92,-106.19 c -9.56,-5.52 -16.05,-18.86 -14.49,-29.8 l 25.26,-177.08 c 1.56,-10.93 10.58,-15.32 20.15,-9.8 l 183.91,106.19 c 9.57,5.52 16.06,18.86 14.5,29.8"
         style="fill:#e7e8e5;fill-opacity:1;fill-rule:nonzero;stroke:none"
         id="path140" /><path
         d="m 1322.27,2328.74 -6.33,45.21 c -1.56,10.94 -10.57,15.33 -20.14,9.8 l -183.91,-106.18 c -9.57,-5.52 -16.06,-18.86 -14.5,-29.8 l 6.32,-45.21 c 1.56,-10.94 10.58,-15.33 20.15,-9.8 l 183.91,106.18 c 9.57,5.52 16.06,18.86 14.5,29.8"
         style="fill:#e1e2df;fill-opacity:1;fill-rule:nonzero;stroke:none"
         id="path142" /><path
         d="m 1606.67,2492.73 -6.33,45.21 c -1.56,10.94 -10.58,15.32 -20.14,9.8 l -183.92,-106.18 c -9.56,-5.52 -16.05,-18.87 -14.49,-29.8 l 6.32,-45.22 c 1.56,-10.93 10.58,-15.32 20.15,-9.79 l 183.91,106.18 c 9.57,5.52 16.06,18.86 14.5,29.8"
         style="fill:#e1e2df;fill-opacity:1;fill-rule:nonzero;stroke:none"
         id="path144" /><path
         d="m 1891.07,2656.72 -6.33,45.21 c -1.56,10.94 -10.58,15.32 -20.14,9.8 l -183.92,-106.18 c -9.56,-5.53 -16.05,-18.87 -14.49,-29.8 l 6.32,-45.22 c 1.56,-10.93 10.58,-15.32 20.15,-9.8 l 183.91,106.19 c 9.57,5.52 16.06,18.86 14.5,29.8"
         style="fill:#e1e2df;fill-opacity:1;fill-rule:nonzero;stroke:none"
         id="path146" /><path
         d="m 2175.47,2820.71 -6.33,45.21 c -1.56,10.94 -10.58,15.32 -20.14,9.8 l -183.92,-106.18 c -9.56,-5.53 -16.05,-18.87 -14.49,-29.8 l 6.32,-45.22 c 1.56,-10.93 10.58,-15.32 20.15,-9.8 l 183.91,106.19 c 9.57,5.52 16.06,18.86 14.5,29.8"
         style="fill:#e1e2df;fill-opacity:1;fill-rule:nonzero;stroke:none"
         id="path148" /><path
         d="m 2459.86,2984.7 -6.32,45.21 c -1.56,10.93 -10.58,15.32 -20.15,9.8 l -183.91,-106.18 c -9.57,-5.53 -16.06,-18.87 -14.5,-29.8 l 6.33,-45.22 c 1.56,-10.93 10.58,-15.32 20.14,-9.8 l 183.92,106.18 c 9.56,5.53 16.05,18.87 14.49,29.81"
         style="fill:#e1e2df;fill-opacity:1;fill-rule:nonzero;stroke:none"
         id="path150" /><path
         d="m 2744.26,3148.68 -6.32,45.22 c -1.56,10.94 -10.58,15.32 -20.15,9.8 l -183.91,-106.18 c -9.57,-5.53 -16.06,-18.87 -14.5,-29.81 l 6.33,-45.21 c 1.56,-10.93 10.58,-15.32 20.14,-9.8 l 183.92,106.19 c 9.56,5.52 16.05,18.86 14.49,29.79"
         style="fill:#e1e2df;fill-opacity:1;fill-rule:nonzero;stroke:none"
         id="path152" /><path
         d="m 3028.66,3312.67 -6.32,45.22 c -1.56,10.93 -10.58,15.32 -20.15,9.8 L 2818.28,3261.5 c -9.57,-5.52 -16.06,-18.86 -14.5,-29.8 l 6.33,-45.21 c 1.56,-10.94 10.58,-15.32 20.14,-9.8 l 183.92,106.19 c 9.56,5.52 16.05,18.86 14.49,29.79"
         style="fill:#e1e2df;fill-opacity:1;fill-rule:nonzero;stroke:none"
         id="path154" /><path
         d="m 1134.62,2569.9 c -13.73,0 -24.39,9.35 -26.74,25.83 -3.41,23.94 11.99,53.84 34.41,66.79 6.98,4.03 13.82,5.95 20.04,5.95 13.73,0 24.39,-9.36 26.74,-25.83 3.41,-23.94 -11.99,-53.84 -34.41,-66.79 -6.98,-4.04 -13.82,-5.95 -20.04,-5.95"
         style="fill:#14b099;fill-opacity:1;fill-rule:nonzero;stroke:none"
         id="path156" /><path
         d="m 1419.23,2734.17 c -13.73,0 -24.39,9.35 -26.75,25.83 -3.41,23.94 11.99,53.84 34.41,66.79 6.99,4.03 13.83,5.95 20.04,5.95 13.73,0 24.39,-9.35 26.74,-25.83 3.42,-23.94 -11.99,-53.84 -34.41,-66.79 -6.98,-4.03 -13.82,-5.95 -20.03,-5.95"
         style="fill:#14b099;fill-opacity:1;fill-rule:nonzero;stroke:none"
         id="path158" /><path
         d="m 1703.35,2898.27 c -13.73,0 -24.39,9.35 -26.74,25.83 -3.41,23.93 11.99,53.83 34.41,66.79 6.98,4.03 13.82,5.94 20.03,5.94 13.74,0 24.39,-9.35 26.75,-25.83 3.41,-23.93 -11.99,-53.83 -34.41,-66.78 -6.99,-4.04 -13.83,-5.95 -20.04,-5.95"
         style="fill:#14b099;fill-opacity:1;fill-rule:nonzero;stroke:none"
         id="path160" /><path
         d="m 2271.92,3226.51 c -13.73,0 -24.39,9.35 -26.75,25.83 -3.41,23.93 11.99,53.83 34.41,66.79 6.99,4.03 13.83,5.94 20.04,5.94 13.73,0 24.39,-9.35 26.74,-25.83 3.42,-23.93 -11.99,-53.83 -34.41,-66.78 -6.98,-4.04 -13.82,-5.95 -20.03,-5.95"
         style="fill:#14b099;fill-opacity:1;fill-rule:nonzero;stroke:none"
         id="path162" /><path
         d="m 2556.52,3390.78 c -13.73,0 -24.39,9.35 -26.74,25.83 -3.42,23.93 11.99,53.83 34.41,66.78 6.98,4.04 13.82,5.95 20.03,5.95 13.73,0 24.39,-9.35 26.74,-25.83 3.42,-23.93 -11.99,-53.83 -34.41,-66.78 -6.98,-4.04 -13.82,-5.95 -20.03,-5.95"
         style="fill:#14b099;fill-opacity:1;fill-rule:nonzero;stroke:none"
         id="path164" /><path
         d="m 2840.65,3554.88 c -13.74,0 -24.4,9.35 -26.75,25.82 -3.41,23.94 11.99,53.84 34.41,66.79 6.99,4.03 13.83,5.95 20.04,5.95 13.73,0 24.39,-9.35 26.74,-25.83 3.41,-23.93 -11.99,-53.84 -34.41,-66.79 -6.98,-4.03 -13.82,-5.94 -20.03,-5.94"
         style="fill:#14b099;fill-opacity:1;fill-rule:nonzero;stroke:none"
         id="path166" /><path
         d="m 1078.41,2865.92 c -30.4,17.5 -59.4,20.1 -81.805,7.1 -22.398,-12.9 -34.796,-39.3 -34.796,-74.4 0,-15.6 2.597,-32.1 7.199,-48.5 l 17.801,10.2 c -3.2,13 -5,25.9 -5,38.3 0,27.6 8.8,47.9 24.801,57.1 6.3,3.6 13.5,5.4 21.5,5.4 12.1,0 25.8,-4.2 40.3,-12.5 53.2,-30.8 96.5,-105.8 96.5,-167.2 0,-4.6 -0.2,-9 -0.7,-13.1 -2.4,-20.9 -10.7,-36.3 -24,-44 -8.6,-4.9 -18.8,-6.5 -30.2,-4.8 -2,-6.6 -2.9,-13.4 -2.5,-19.8 3.8,-0.6 7.6,-0.9 11.3,-0.9 11.4,0 22,2.7 31.4,8.2 17.2,9.9 28.4,27.7 32.7,51.4 1.3,7.2 2,14.9 2,23 0,67.8 -47.8,150.6 -106.5,184.5"
         style="fill:#f3f2f1;fill-opacity:1;fill-rule:nonzero;stroke:none"
         id="path168" /><path
         d="m 1363.01,3030.19 c -30.4,17.5 -59.4,20.1 -81.8,7.1 -22.4,-12.9 -34.8,-39.3 -34.8,-74.4 0,-15.6 2.6,-32.1 7.2,-48.5 l 17.8,10.2 c -3.2,13 -5,25.9 -5,38.3 0,27.6 8.8,47.9 24.8,57.1 6.3,3.6 13.5,5.4 21.5,5.4 12.1,0 25.8,-4.2 40.3,-12.5 53.2,-30.8 96.5,-105.8 96.5,-167.2 0,-4.6 -0.2,-9 -0.7,-13.1 -2.4,-20.9 -10.7,-36.3 -24,-44 -8.6,-4.9 -18.8,-6.5 -30.2,-4.8 -2,-6.6 -2.9,-13.4 -2.5,-19.8 3.8,-0.6 7.6,-0.9 11.3,-0.9 11.4,0 22,2.7 31.4,8.2 17.2,9.9 28.4,27.7 32.7,51.4 1.3,7.2 2,14.9 2,23 0,67.8 -47.8,150.6 -106.5,184.5"
         style="fill:#f3f2f1;fill-opacity:1;fill-rule:nonzero;stroke:none"
         id="path170" /><path
         d="m 1647.11,3194.26 c -30.4,17.5 -59.4,20.1 -81.8,7.1 -22.4,-12.9 -34.8,-39.3 -34.8,-74.4 0,-15.6 2.6,-32.1 7.2,-48.5 l 17.8,10.2 c -3.2,13 -5,25.9 -5,38.3 0,27.6 8.8,47.9 24.8,57.1 6.3,3.6 13.5,5.4 21.5,5.4 12.1,0 25.8,-4.2 40.3,-12.5 53.2,-30.8 96.5,-105.8 96.5,-167.2 0,-4.6 -0.2,-9 -0.7,-13.1 -2.4,-20.9 -10.7,-36.3 -24,-44 -8.6,-4.9 -18.8,-6.5 -30.2,-4.8 -2,-6.6 -2.9,-13.4 -2.5,-19.8 3.8,-0.6 7.6,-0.9 11.3,-0.9 11.4,0 22,2.7 31.4,8.2 17.2,9.9 28.4,27.7 32.7,51.4 1.3,7.2 2,14.9 2,23 0,67.8 -47.8,150.6 -106.5,184.5"
         style="fill:#f3f2f1;fill-opacity:1;fill-rule:nonzero;stroke:none"
         id="path172" /><path
         d="m 2215.81,3522.09 c -30.4,17.5 -59.4,20.11 -81.8,7.11 -22.4,-12.91 -34.8,-39.31 -34.8,-74.41 0,-15.59 2.6,-32.09 7.2,-48.5 l 17.8,10.21 c -3.2,13 -5,25.89 -5,38.29 0,27.6 8.8,47.91 24.8,57.1 6.3,3.61 13.5,5.4 21.5,5.4 12.1,0 25.8,-4.2 40.3,-12.5 53.2,-30.79 96.5,-105.79 96.5,-167.2 0,-4.59 -0.2,-9 -0.7,-13.09 -2.4,-20.91 -10.7,-36.3 -24,-44 -8.6,-4.91 -18.8,-6.5 -30.2,-4.8 -2,-6.61 -2.9,-13.41 -2.5,-19.81 3.8,-0.6 7.6,-0.89 11.3,-0.89 11.4,0 22,2.7 31.4,8.2 17.2,9.89 28.4,27.69 32.7,51.39 1.3,7.2 2,14.91 2,23 0,67.8 -47.8,150.61 -106.5,184.5"
         style="fill:#f3f2f1;fill-opacity:1;fill-rule:nonzero;stroke:none"
         id="path174" /><path
         d="m 2500.41,3686.37 c -30.4,17.5 -59.4,20.09 -81.8,7.09 -22.4,-12.89 -34.8,-39.3 -34.8,-74.39 0,-15.61 2.6,-32.11 7.2,-48.5 l 17.8,10.2 c -3.2,13 -5,25.89 -5,38.3 0,27.59 8.8,47.89 24.8,57.09 6.3,3.61 13.5,5.41 21.5,5.41 12.1,0 25.8,-4.21 40.3,-12.5 53.2,-30.8 96.5,-105.8 96.5,-167.21 0,-4.59 -0.2,-9 -0.7,-13.09 -2.4,-20.91 -10.7,-36.31 -24,-44 -8.6,-4.91 -18.8,-6.5 -30.2,-4.81 -2,-6.6 -2.9,-13.39 -2.5,-19.79 3.8,-0.6 7.6,-0.9 11.3,-0.9 11.4,0 22,2.69 31.4,8.19 17.2,9.9 28.4,27.71 32.7,51.41 1.3,7.2 2,14.9 2,22.99 0,67.8 -47.8,150.6 -106.5,184.51"
         style="fill:#f3f2f1;fill-opacity:1;fill-rule:nonzero;stroke:none"
         id="path176" /><path
         d="m 2784.52,3850.43 c -30.4,17.5 -59.41,20.1 -81.81,7.1 -22.4,-12.9 -34.8,-39.3 -34.8,-74.4 0,-15.6 2.6,-32.09 7.2,-48.5 l 17.8,10.21 c -3.19,12.99 -5,25.89 -5,38.29 0,27.6 8.81,47.91 24.8,57.1 6.31,3.6 13.51,5.4 21.51,5.4 12.1,0 25.79,-4.2 40.3,-12.5 53.19,-30.79 96.49,-105.79 96.49,-167.2 0,-4.6 -0.2,-9 -0.7,-13.1 -2.4,-20.9 -10.7,-36.3 -23.99,-44 -8.61,-4.9 -18.81,-6.49 -30.2,-4.8 -2,-6.6 -2.91,-13.4 -2.5,-19.8 3.8,-0.6 7.6,-0.9 11.3,-0.9 11.4,0 22,2.71 31.4,8.2 17.19,9.9 28.4,27.7 32.7,51.4 1.29,7.2 1.99,14.9 1.99,23 0,67.8 -47.8,150.6 -106.49,184.5"
         style="fill:#f3f2f1;fill-opacity:1;fill-rule:nonzero;stroke:none"
         id="path178" /><path
         d="m 3079.97,1249.17 -67.19,-116.74 c -9.01,-15.08 -4.08,-34.61 11,-43.61 15.09,-9.01 34.61,-4.08 43.62,11 l 67.58,117.41 c 6.53,11.25 -0.49,27.52 -15.68,36.34 -15.2,8.82 -32.8,6.85 -39.33,-4.4"
         style="fill:#33535f;fill-opacity:1;fill-rule:nonzero;stroke:none"
         id="path180" /><path
         d="m 3614.82,1455.07 116.74,-67.19 c 15.08,-9 34.61,-4.08 43.61,11.01 9,15.08 4.07,34.6 -11.01,43.61 l -117.4,67.58 c -11.25,6.53 -27.52,-0.49 -36.34,-15.68 -8.82,-15.2 -6.85,-32.8 4.4,-39.33"
         style="fill:#33535f;fill-opacity:1;fill-rule:nonzero;stroke:none"
         id="path182" /><path
         d="m 3744.08,1981.17 0.02,0.03 -0.56,0.32 -0.06,0.03 -284.25,164.11 -0.12,0.07 -0.78,0.45 -0.02,-0.03 c -62.42,35.54 -148.37,30.16 -243.28,-24.64 -190.7,-110.09 -345.28,-377.84 -345.28,-598.03 0,-109.75 38.42,-186.95 100.56,-223.17 l -0.01,-0.02 0.55,-0.31 0.07,-0.04 284.28,-164.13 0.05,-0.03 0.66,-0.38 0.01,0.03 c 62.43,-35.65 148.45,-30.3 243.45,24.55 190.69,110.09 345.27,377.84 345.27,598.03 0,109.75 -38.42,186.94 -100.56,223.16"
         style="fill:#26b6a6;fill-opacity:1;fill-rule:nonzero;stroke:none"
         id="path184" /><path
         d="m 2970.91,1299.94 h -0.05 l -0.33,0.22 0.32,-0.18 0.06,-0.04 m -0.6,0.37 -0.05,0.03 c -1.02,0.59 -2.02,1.2 -3.02,1.81 1.02,-0.62 2.04,-1.23 3.07,-1.84 v 0"
         style="fill:#c0c1bf;fill-opacity:1;fill-rule:nonzero;stroke:none"
         id="path186" /><path
         d="m 3250.41,1138.68 -279.45,161.26 h -0.05 l -0.06,0.04 -0.32,0.18 -0.22,0.15 v 0 c -1.03,0.61 -2.05,1.22 -3.07,1.84 -60.33,37.02 -97.48,113.48 -97.48,221.29 0,98.2 30.8,205.8 81.7,304.6 l 284.3,-164.1 c -1.75,-3.36 -3.47,-6.76 -5.16,-10.15 -47.9,-95.98 -76.54,-199.6 -76.54,-294.45 0,-68.03 14.76,-123.55 40.79,-164.56 0.04,-0.07 0.09,-0.13 0.13,-0.2 0.01,-0.02 0.02,-0.04 0.03,-0.06 14.97,-23.53 33.67,-42.27 55.4,-55.84"
         style="fill:#1db3a0;fill-opacity:1;fill-rule:nonzero;stroke:none"
         id="path188" /><path
         d="m 3345.17,1112.82 c -33.14,0 -63.26,7.73 -89.26,22.58 l 0.01,0.03 c 26.02,-14.86 56.14,-22.59 89.29,-22.59 46.4,0 98.75,15.15 154.16,47.14 87.24,50.37 166.94,133.75 227.72,230.47 v 0 c -60.78,-96.72 -140.48,-180.1 -227.72,-230.47 -55.42,-32 -107.79,-47.16 -154.2,-47.16 m -89.93,22.96 c -0.1,0.06 -0.22,0.13 -0.31,0.19 l 0.27,-0.16 0.04,-0.03"
         style="fill:#e8e9e6;fill-opacity:1;fill-rule:nonzero;stroke:none"
         id="path190" /><path
         d="m 3844.64,1758.01 c 0,0.19 0,0.38 0,0.57 0,-0.19 0,-0.39 0,-0.57 m 0,0.73 c 0,0.15 0,0.31 0,0.46 0,-0.16 0,-0.3 0,-0.46 m 0,0.59 c 0,0.18 0,0.38 0,0.57 0,-0.19 0,-0.39 0,-0.57 m 0,0.69 c 0,0.15 0,0.3 0,0.45 0,-0.14 0,-0.3 0,-0.45 m 0,0.62 c 0,0.2 -0.01,0.38 -0.01,0.57 0,-0.19 0.01,-0.38 0.01,-0.57 m -0.01,0.58 c 0,0.19 0,0.37 0,0.57 0,-0.19 0,-0.39 0,-0.57 m 0,0.71 c 0,0.16 -0.01,0.33 -0.01,0.48 0,-0.16 0.01,-0.32 0.01,-0.48 m -0.01,0.59 c 0,0.19 0,0.37 0,0.56 0,-0.2 0,-0.36 0,-0.56 m -0.01,0.69 c 0,0.17 0,0.32 0,0.49 0,-0.16 0,-0.33 0,-0.49 m 0,0.6 c -0.01,0.4 -0.01,0.78 -0.02,1.18 0.01,-0.39 0.01,-0.8 0.02,-1.18 m -0.02,1.28 c 0,0.18 -0.01,0.37 -0.01,0.55 0,-0.18 0.01,-0.37 0.01,-0.55 m -0.01,0.59 c 0,0.2 -0.01,0.4 -0.01,0.6 0,-0.19 0.01,-0.4 0.01,-0.6 m -0.01,0.66 c 0,0.18 -0.01,0.36 -0.01,0.54 0,-0.18 0.01,-0.35 0.01,-0.54 m -0.01,0.63 c -0.01,0.39 -0.02,0.79 -0.03,1.18 0.01,-0.4 0.02,-0.79 0.03,-1.18 m -0.03,1.28 c -0.01,0.4 -0.02,0.81 -0.03,1.2 0.01,-0.4 0.02,-0.8 0.03,-1.2 m -0.03,1.23 c 0,0.2 -0.01,0.39 -0.01,0.59 0,-0.2 0.01,-0.39 0.01,-0.59 m -0.01,0.62 c -0.02,0.41 -0.03,0.83 -0.04,1.24 0.01,-0.42 0.02,-0.82 0.04,-1.24 m -0.04,1.25 c -3,102.68 -40.77,175.09 -100.37,209.82 l 0.02,0.03 c 59.58,-34.74 97.35,-107.18 100.35,-209.85"
         style="fill:#ffffff;fill-opacity:1;fill-rule:nonzero;stroke:none"
         id="path192" /><path
         d="m 3345.21,1112.84 c -33.15,0 -63.27,7.73 -89.29,22.59 l -0.01,-0.03 c -0.23,0.13 -0.44,0.25 -0.67,0.38 l -0.04,0.03 -0.27,0.16 c -1.53,0.88 -3.02,1.78 -4.52,2.71 l 0.25,-0.14 v 0 c -21.84,13.59 -40.62,32.38 -55.65,55.98 -0.01,0.02 -0.02,0.04 -0.03,0.06 -0.05,0.07 -0.09,0.13 -0.13,0.2 -26.01,41.01 -40.75,96.52 -40.75,164.54 0,94.8 28.65,198.42 76.5,294.47 1.7,3.4 3.41,6.78 5.16,10.15 v 0 c 63.32,122.95 157.92,232.39 263.61,293.41 55.42,32 107.79,47.16 154.2,47.16 33.69,0 64.23,-7.98 90.53,-23.31 l -0.02,-0.03 c 59.6,-34.73 97.37,-107.14 100.37,-209.82 v -0.01 c 0.01,-0.41 0.02,-0.83 0.04,-1.24 v -0.03 c 0,-0.2 0.01,-0.39 0.01,-0.59 0,-0.01 0,-0.02 0,-0.03 0.01,-0.39 0.02,-0.8 0.03,-1.2 0,-0.04 0,-0.06 0,-0.1 0.01,-0.39 0.02,-0.79 0.03,-1.18 0,-0.03 0,-0.06 0,-0.09 0,-0.18 0.01,-0.36 0.01,-0.54 0,-0.01 0,-0.04 0,-0.06 0,-0.2 0.01,-0.4 0.01,-0.6 0,-0.01 0,-0.02 0,-0.04 0,-0.18 0.01,-0.37 0.01,-0.55 0,-0.04 0,-0.06 0,-0.1 0.01,-0.4 0.01,-0.78 0.02,-1.18 0,-0.04 0,-0.07 0,-0.11 0,-0.17 0,-0.32 0,-0.49 0.01,-0.04 0.01,-0.09 0.01,-0.13 0,-0.19 0,-0.37 0,-0.56 0,-0.03 0,-0.08 0,-0.11 0,-0.15 0.01,-0.32 0.01,-0.48 0,-0.05 0,-0.09 0,-0.14 0,-0.2 0,-0.38 0,-0.57 v -0.01 c 0,-0.19 0.01,-0.37 0.01,-0.57 0,-0.07 0,-0.1 0,-0.17 0,-0.15 0,-0.3 0,-0.45 0,-0.04 0,-0.08 0,-0.12 0,-0.19 0,-0.39 0,-0.57 0,-0.04 0,-0.09 0,-0.13 0,-0.15 0,-0.31 0,-0.46 0,-0.06 0,-0.1 0,-0.16 0,-0.19 0,-0.38 0,-0.57 v 0 c 0,-100.76 -32.36,-211.47 -85.75,-312.48 -9.9,-18.74 -20.52,-37.13 -31.8,-55.08 -60.78,-96.72 -140.48,-180.1 -227.72,-230.47 -55.41,-31.99 -107.76,-47.14 -154.16,-47.14"
         style="fill:#5cc8bc;fill-opacity:1;fill-rule:nonzero;stroke:none"
         id="path194" /><path
         d="m 3250.66,1138.54 -0.25,0.14 c -21.73,13.57 -40.43,32.31 -55.4,55.84 15.03,-23.6 33.81,-42.39 55.65,-55.98 m -55.68,56.04 c -0.04,0.07 -0.09,0.13 -0.13,0.2 0.04,-0.07 0.08,-0.13 0.13,-0.2 m 35.62,459.21 c 1.69,3.39 3.41,6.79 5.15,10.16 l 0.01,-0.01 c -1.75,-3.37 -3.46,-6.75 -5.16,-10.15"
         style="fill:#5bc7b8;fill-opacity:1;fill-rule:nonzero;stroke:none"
         id="path196" /><path
         d="m 3345.16,1182.82 c -109.27,0 -121.06,123.44 -121.06,176.5 0,194.21 142.09,440.31 310.27,537.4 42.8,24.72 84.02,37.79 119.2,37.79 109.28,0 121.07,-123.44 121.07,-176.51 0,-194.2 -142.09,-440.3 -310.27,-537.4 -42.81,-24.72 -84.03,-37.78 -119.2,-37.78 h -0.01"
         style="fill:#fafaf9;fill-opacity:1;fill-rule:nonzero;stroke:none"
         id="path198" /><path
         d="m 3422.84,1333.7 -1.65,0.28 c -2.61,0.91 -3.99,3.76 -3.07,6.37 l 76.53,218.5 c 0.92,2.61 3.77,4 6.37,3.07 2.61,-0.91 3.99,-3.76 3.07,-6.37 l -76.54,-218.5 c -0.72,-2.06 -2.65,-3.35 -4.71,-3.35"
         style="fill:#26b6a6;fill-opacity:1;fill-rule:nonzero;stroke:none"
         id="path200" /><path
         d="m 3614.05,1492.61 c -1.98,0 -4.01,0.39 -5.95,1.23 l -123.73,53.51 v 224.39 c 0,8.29 6.72,15 15,15 8.28,0 15,-6.71 15,-15 v -204.68 l 105.65,-45.68 c 7.59,-3.29 11.1,-12.12 7.81,-19.72 -2.45,-5.67 -7.98,-9.05 -13.78,-9.05"
         style="fill:#263e47;fill-opacity:1;fill-rule:nonzero;stroke:none"
         id="path202" /><path
         d="m 3499.37,1605.57 c 22.43,12.95 40.62,2.45 40.62,-23.45 0,-25.91 -18.18,-57.41 -40.62,-70.36 -22.43,-12.95 -40.62,-2.45 -40.62,23.45 0,25.91 18.19,57.41 40.62,70.36"
         style="fill:#26b6a6;fill-opacity:1;fill-rule:nonzero;stroke:none"
         id="path204" /><path
         d="m 3168.99,1766.61 c -49.02,-84.78 -141.26,-123.11 -210.65,-83.03 -84.8,48.98 -113.77,157.47 -64.76,242.25 49.02,84.78 157.77,114.28 242.25,64.75 69.14,-40.52 82.17,-139.2 33.16,-223.97"
         style="fill:#33535f;fill-opacity:1;fill-rule:nonzero;stroke:none"
         id="path206" /><path
         d="m 2958.34,1683.58 c 69.39,-40.08 161.63,-1.75 210.65,83.03 11.44,19.79 19.36,40.34 24.12,60.73 -2.85,-3.68 -84.37,-107.67 -185.76,-78.42 -103.2,29.78 -122.66,109.3 -113.77,176.91 -49.01,-84.78 -20.04,-193.27 64.76,-242.25"
         style="fill:#263e47;fill-opacity:1;fill-rule:nonzero;stroke:none"
         id="path208" /><path
         d="m 2929.8,1943.08 -52.56,30.4 c -15.08,9 -34.61,4.07 -43.61,-11.01 -9,-15.08 -4.08,-34.61 11.01,-43.61 l 53.22,-30.79 c 11.25,-6.53 27.51,0.49 36.33,15.68 8.82,15.19 6.85,32.8 -4.39,39.33"
         style="fill:#26b6a6;fill-opacity:1;fill-rule:nonzero;stroke:none"
         id="path210" /><path
         d="m 3714.45,2196.74 30.39,52.56 c 9.01,15.08 4.08,34.61 -11,43.61 -15.09,9 -34.61,4.07 -43.62,-11.01 l -30.78,-53.22 c -6.53,-11.25 0.49,-27.52 15.68,-36.33 15.19,-8.83 32.8,-6.85 39.33,4.39"
         style="fill:#26b6a6;fill-opacity:1;fill-rule:nonzero;stroke:none"
         id="path212" /><path
         d="m 3460.32,2175.09 c 49.01,84.77 157.47,113.77 242.25,64.75 84.77,-49.01 113.77,-157.47 64.75,-242.25 l -307,177.5"
         style="fill:#33535f;fill-opacity:1;fill-rule:nonzero;stroke:none"
         id="path214" /><path
         d="m 3728.79,2221.17 c 10.06,-20.95 37.23,-109.46 -0.09,-131.42 -37.43,-22.01 -209.03,51.02 -209.03,51.02 l 247.65,-143.18 c 43.53,75.29 25.42,169.16 -38.53,223.58"
         style="fill:#263e47;fill-opacity:1;fill-rule:nonzero;stroke:none"
         id="path216" /><path
         d="m 2606.54,1714.41 c -177,237.98 -235.22,264.48 -268.5,272.56 l 58.35,-159.61 120.96,-156.1 89.19,43.15"
         style="fill:#f6879f;fill-opacity:1;fill-rule:nonzero;stroke:none"
         id="path218" /><path
         d="m 2320.72,1989.54 c 0,0 37.63,11.47 91.95,-41.83 54.32,-53.3 120.49,-131.04 120.49,-131.04 0,0 -17.78,-63.5 -73.09,-83.25 l -80.27,83.25 -59.08,172.87"
         style="fill:#26b6a6;fill-opacity:1;fill-rule:nonzero;stroke:none"
         id="path220" /><path
         d="m 2460.07,1733.42 -37.08,38.46 c -1.4,42.36 -3.14,76.51 -5.31,91.07 -13.3,89.38 -54.12,125.11 -96.93,126.6 0.37,0.11 3.73,1.03 9.61,1.03 14.5,0 44.32,-5.6 82.31,-42.87 54.32,-53.3 120.49,-131.04 120.49,-131.04 0,0 -0.51,-1.84 -1.64,-4.98 -5.2,-14.54 -23.49,-57.12 -64.49,-75.48 -2.25,-1.01 -4.57,-1.94 -6.96,-2.79"
         style="fill:#1db3a0;fill-opacity:1;fill-rule:nonzero;stroke:none"
         id="path222" /><path
         d="m 2230.28,2220.25 c 0,-56.12 45.5,-101.61 101.62,-101.61 56.12,0 101.61,45.49 101.61,101.61 0,56.13 -45.49,101.62 -101.61,101.62 -56.12,0 -101.62,-45.49 -101.62,-101.62"
         style="fill:#17282f;fill-opacity:1;fill-rule:nonzero;stroke:none"
         id="path224" /><path
         d="m 2088.56,378.32 h 71.58 v 122.539 h -71.58 V 378.32"
         style="fill:#f6879f;fill-opacity:1;fill-rule:nonzero;stroke:none"
         id="path226" /><path
         d="m 2321.97,467.34 71.53,-2.461 3.58,129.672 -71.53,2.461 -3.58,-129.672"
         style="fill:#f6879f;fill-opacity:1;fill-rule:nonzero;stroke:none"
         id="path228" /><path
         d="m 2093.26,1472.16 c 0,-68.35 -0.07,-495.078 -0.07,-495.078 -1.67,-19.672 -16.19,-53.742 -20.14,-137.461 -4.85,-102.652 10.83,-385.242 10.83,-385.242 0,0 33.56,-33.27 80.95,0 0,0 63.52,403.41 76.35,505.101 11.19,88.75 30.18,329.85 30.18,329.85 l 42.85,-363.221 c 0,0 -11.68,-66.711 -14.24,-113.8 -2.56,-47.09 20.61,-298.219 20.61,-298.219 0,0 36.39,-25.141 77.89,-2.969 0,0 49.04,376.527 56.42,419.059 7.38,42.519 -26.85,541.98 -26.85,541.98 h -334.78"
         style="fill:#263e47;fill-opacity:1;fill-rule:nonzero;stroke:none"
         id="path230" /><path
         d="m 2162.02,1966.61 c -9.62,-1.71 -20.79,-3.37 -29.54,-6.81 -19.63,-7.7 -28.62,-31.91 -33.34,-53.29 -3.39,-15.36 -5.88,-33.67 -5.88,-54.34 v -140.25 -239.76 c 50.19,-54.6 225.18,-80.04 334.78,0 0,0 -2.15,335.65 -10.36,390.79 -14.26,95.81 -60.13,129.98 -106.18,126.4 l -110.49,-15.81 -38.99,-6.93"
         style="fill:#26b6a6;fill-opacity:1;fill-rule:nonzero;stroke:none"
         id="path232" /><path
         d="m 2156.25,2148 c 0,0 16.46,-77.36 23.07,-90.07 6.6,-12.71 20.24,-16.32 20.24,-16.32 l -1.15,54.42 -42.16,51.97"
         style="fill:#17282f;fill-opacity:1;fill-rule:nonzero;stroke:none"
         id="path234" /><path
         d="m 2176.91,2258.83 c 0,0 -17.73,3.04 -31.56,-11.1 -13.55,-13.86 -5.98,-57.24 10.9,-99.73 l 31.01,-3.56 -10.35,114.39"
         style="fill:#17282f;fill-opacity:1;fill-rule:nonzero;stroke:none"
         id="path236" /><path
         d="m 2196.57,2144.42 c -6.22,-3.72 -15.1,8.23 -22.77,16.26 -7.67,8.02 -32.7,18.99 -45.19,-7.33 -12.73,-26.82 11.02,-62.26 30.73,-68.45 33.97,-10.66 39.07,11.13 39.07,11.13 l 2.6,-122.54 c 0,0 22.24,-54.42 82.47,-62.59 60.23,-8.16 47.83,41.5 28.05,65.83 l -0.09,37.3 c 0,0 30.78,-4.67 45.79,-2.35 24.98,3.86 40.7,23.57 48.28,50.61 12.17,43.44 16.79,78.51 6.47,163.93 -11.32,93.63 -120.22,94.61 -179.03,57.59 -58.81,-37.01 -36.38,-139.39 -36.38,-139.39"
         style="fill:#f6879f;fill-opacity:1;fill-rule:nonzero;stroke:none"
         id="path238" /><path
         d="m 2196.57,2133.95 c -3.13,-0.06 -15.02,19.68 -22.77,26.73 -10.72,9.76 3.11,98.15 3.11,98.15 0,0 -10.3,21.97 10.35,44.71 14.7,16.17 39.26,17.97 81.19,24.56 22.01,3.46 55.36,9.62 77.32,13.7 26.24,4.88 47.96,10.04 66.48,-6.06 14.42,-12.52 20.62,-34.66 12.86,-52.11 -1.82,-4.1 -4.45,-7.79 -7.45,-11.12 -5.31,-5.91 -6.22,-13.91 -13.78,-16.37 0,0 -15.83,-14.34 -55.63,-19.18 -39.79,-4.85 -101.78,0.93 -110.25,2.09 -11.54,1.58 -14.71,-2.06 -20.93,-32.61 -5.46,-26.82 -9.99,-72.28 -20.5,-72.49"
         style="fill:#17282f;fill-opacity:1;fill-rule:nonzero;stroke:none"
         id="path240" /><path
         d="m 2176.97,2251.96 -37.6,20.18 c 5.34,10.78 18.08,14.99 28.47,9.42 10.38,-5.58 14.47,-18.83 9.13,-29.6"
         style="fill:#17282f;fill-opacity:1;fill-rule:nonzero;stroke:none"
         id="path242" /><path
         d="m 2311.44,2014.03 c 0,0 -55.77,11.23 -75.27,21.59 -13.05,6.94 -23.79,18.96 -26.95,26.67 0,0 3.65,-16.55 15.31,-31.45 14.26,-18.23 86.91,-31.65 86.91,-31.65 v 14.84"
         style="fill:#f47089;fill-opacity:1;fill-rule:nonzero;stroke:none"
         id="path244" /><path
         d="m 2301.57,2148.11 c 0,-6.41 -5.01,-11.6 -11.18,-11.58 -6.17,0.02 -11.17,5.23 -11.17,11.64 0,6.42 5,11.6 11.17,11.59 6.17,-0.02 11.18,-5.24 11.18,-11.65"
         style="fill:#17282f;fill-opacity:1;fill-rule:nonzero;stroke:none"
         id="path246" /><path
         d="m 2289.72,2190.3 -23.91,-13.19 c -3.53,6.87 -1.03,15.39 5.57,19.03 6.6,3.65 14.81,1.03 18.34,-5.84"
         style="fill:#17282f;fill-opacity:1;fill-rule:nonzero;stroke:none"
         id="path248" /><path
         d="m 2306.39,2081.16 25.51,-9.57 c -2.53,-7.31 -10.28,-11.1 -17.33,-8.46 -7.05,2.65 -10.71,10.72 -8.18,18.03"
         style="fill:#f47089;fill-opacity:1;fill-rule:nonzero;stroke:none"
         id="path250" /><path
         d="m 2401.23,2181 -21.8,16.79 c 4.44,6.25 12.93,7.55 18.95,2.91 6.02,-4.64 7.29,-13.46 2.85,-19.7"
         style="fill:#17282f;fill-opacity:1;fill-rule:nonzero;stroke:none"
         id="path252" /><path
         d="m 2394.52,2151.29 c 0,-6.41 -5.01,-11.59 -11.18,-11.58 -6.17,0.02 -11.18,5.23 -11.18,11.65 0,6.41 5.01,11.59 11.18,11.58 6.17,-0.02 11.18,-5.23 11.18,-11.65"
         style="fill:#17282f;fill-opacity:1;fill-rule:nonzero;stroke:none"
         id="path254" /><path
         d="m 2334.04,2172.14 3.67,-67.21 35.09,11.97 z"
         style="fill:#f47089;fill-opacity:1;fill-rule:nonzero;stroke:none"
         id="path256" /><path
         d="m 2160.14,413.648 v 10.243 c 6.85,-2.981 22.76,-63.692 51.16,-89.602 22.58,-20.59 53.38,-44.379 61.21,-67.328 8.15,-23.879 -42.89,-37.063 -63.98,-33.332 -24.51,4.351 -66.99,21.601 -77.66,37.601 -10.66,15.989 -15.65,39.602 -24.32,51.321 -8.66,11.719 -28.64,24.808 -33.32,38.379 -2.58,7.461 0.48,23.781 4.1,37.582 3.31,12.648 6.91,26.566 11.23,25.379 0.01,-1.539 0,-7.801 0,-7.801 5.2,-5.758 19.57,-11.469 35.79,-12.102 10.47,-0.398 35.88,1.684 35.79,9.66"
         style="fill:#17282f;fill-opacity:1;fill-rule:nonzero;stroke:none"
         id="path258" /><path
         d="m 2394.26,486.949 c 3.72,-0.129 6.74,-5.367 14.94,-14.238 9.91,-10.731 26.12,-22.289 42.11,-30.301 26.8,-13.41 78.91,-34.051 102.49,-44.68 14.73,-6.628 14.04,-24.429 -1.19,-34.558 -15.23,-10.121 -51.99,-17.422 -96.14,-7.551 -24.05,5.379 -55.36,27.59 -75.18,26.399 -19.81,-1.2 -56.89,-0.918 -71.52,9.16 -14.63,10.09 -8.78,31.621 -4.64,50.121 4.51,20.199 10.97,51.097 17.65,49.719 l -0.22,-6.348 c 8.61,-13.043 52.42,-18.363 71.32,-8.762 l 0.38,11.039"
         style="fill:#17282f;fill-opacity:1;fill-rule:nonzero;stroke:none"
         id="path260" /><path
         d="m 2271.36,1289.33 c 0,0 57.21,16.11 99.68,57.14 0,0 -19.24,-36.01 -76.43,-69.52 l 1.22,-195.05 -24.47,207.43"
         style="fill:#17282f;fill-opacity:1;fill-rule:nonzero;stroke:none"
         id="path262" /><path
         d="m 2135.75,1292.59 c -11.86,10.2 -19.22,22.91 -37.06,35.95 -15.72,11.47 -22,16.48 -31.43,31.96 -10.23,16.79 -19.63,72.79 -23.04,125.92 -4.01,62.69 12.77,142.23 24.74,175.3 24.28,67.13 73.6,157.15 89.98,195.14 16.37,38 7.58,57.08 -7.11,76.36 -17.26,22.66 -49.07,22.7 -79.18,-28.78 -30.1,-51.48 -73.7,-147.77 -95.46,-226.11 -10.55,-37.97 -22.17,-100.08 -17.32,-180.65 3.38,-56.29 15.59,-99.29 31.48,-153.39 4.34,-14.75 3.9,-26.76 8.85,-55.86 1.99,-11.73 3.82,-24.66 9.22,-35.24 6.87,-13.44 15.29,-26.16 25.71,-37.12 13.12,-13.8 29.55,-24.75 47.9,-29.86 10.1,-2.82 20.82,-3.84 31.1,-1.77 10.27,2.06 20.06,7.38 26.5,15.64 1.31,1.68 2.5,3.54 2.81,5.65 0.55,3.79 -1.87,7.32 -4.17,10.39 -12.86,17.16 -29.29,33.74 -40.22,52.08 -9.24,15.5 -13.62,27.72 -10.07,27.06 3.55,-0.65 8.35,-10.14 21.72,-18.44 12.77,-7.93 30.02,-8.11 33.91,-0.6 3.88,7.52 3,6.17 -8.86,16.37"
         style="fill:#f6879f;fill-opacity:1;fill-rule:nonzero;stroke:none"
         id="path264" /><path
         d="m 2140.57,1962.07 c -28.58,-1.76 -54.59,-8.09 -83.18,-64.86 -28.59,-56.77 -73.44,-162.84 -73.44,-162.84 0,0 30.71,-62.98 109.31,-63.11 0,0 65.74,137.38 76.47,173.56 10.72,36.17 18.44,94.43 -29.16,117.25"
         style="fill:#26b6a6;fill-opacity:1;fill-rule:nonzero;stroke:none"
         id="path266" /><path
         d="m 2093.26,1671.26 v 0 c -7.11,0.01 -13.83,0.54 -20.18,1.49 -44.62,6.67 -70.45,34.21 -81.93,50.12 -4.91,6.81 -7.2,11.5 -7.2,11.5 0,0 44.85,106.07 73.44,162.84 28.59,56.77 54.6,63.1 83.18,64.86 28.59,-13.7 37.22,-40.19 37.24,-67 0,-17.83 -3.8,-35.8 -8.08,-50.25 -10.73,-36.18 -76.47,-173.56 -76.47,-173.56"
         style="fill:#1db3a0;fill-opacity:1;fill-rule:nonzero;stroke:none"
         id="path268" /><path
         d="m 2517.35,1671.26 c -6.57,-19.03 -68.91,-76.86 -114.88,-95.27 -8.14,-3.26 -25.48,-5.03 -33.73,-2.05 -10.15,3.66 -23.09,7.69 -34.07,6.65 -13.32,-1.27 -26.99,-3.88 -40.43,-5.39 -2.81,-0.32 -5.69,-0.66 -8.16,-2.03 -8.12,-4.52 -3.5,-11.46 3.05,-13.86 10.45,-3.83 21.17,-6.9 32.06,-9.17 -0.04,-0.97 -0.09,-1.94 -0.14,-2.91 -27.43,-10.98 -57.25,-14.24 -86.63,-17.41 -5.2,-0.56 -10.82,-1.31 -14.52,-5 -3.58,-3.57 -4.45,-9.21 -3.31,-14.14 1.14,-4.93 4,-9.27 7.06,-13.29 12.93,-16.99 30.39,-32.64 52.14,-35.54 21.36,-2.86 43.53,2.27 63.97,8.01 9.87,2.78 19.63,5.94 29.31,9.33 22.41,7.83 55.99,22.67 82.52,36.88 69.05,37.01 126.18,80.27 157.4,110.7 28.85,28.11 21.74,55.12 -2.45,87.65"
         style="fill:#f6879f;fill-opacity:1;fill-rule:nonzero;stroke:none"
         id="path270" /><path
         d="m 2396.33,1574.21 c 0,0 10.28,3.68 21.35,-14.6 11.07,-18.28 18.67,-51.78 4.29,-58.34 0,0 14.09,-2.08 25.28,12.52 0,0 11.34,42.43 -25.28,71.16 0,0 -18.46,-0.71 -25.64,-10.74"
         style="fill:#263e47;fill-opacity:1;fill-rule:nonzero;stroke:none"
         id="path272" /><path
         d="m 2449.17,1567.45 c 5.71,-10.02 2.09,-22.83 -8.09,-28.62 -10.17,-5.8 -23.03,-2.37 -28.74,7.64 -5.7,10.02 -2.08,22.83 8.09,28.62 10.17,5.79 23.04,2.37 28.74,-7.64"
         style="fill:#26b6a6;fill-opacity:1;fill-rule:nonzero;stroke:none"
         id="path274" /><path
         d="m 2444.34,1564.69 c 4.2,-7.38 1.53,-16.83 -5.97,-21.1 -7.5,-4.28 -16.99,-1.75 -21.19,5.64 -4.21,7.38 -1.54,16.83 5.96,21.1 7.5,4.28 16.99,1.75 21.2,-5.64"
         style="fill:#fafaf9;fill-opacity:1;fill-rule:nonzero;stroke:none"
         id="path276" /></g></g></svg>
